# xmcd
#
# Track frame offsets:
#	150
#	14115
#	26667
#	40577
#	57375
#	71305
#	89152
#	100862
#	110965
#	124342
#	139245
#	148777
#	160947
#	173645
#	187572
#	198727
#	211682
#	234910
#	256235
#	272720
#	285480
#	304067
#	324977
#
# Disc length: 4566 seconds
# Revision: 2
# Processed by: cddbd v1.5.2PL0 Copyright (c) Steve Scherf et al.
# Submitted via: dBpowerAMP V12.0
#
DISCID=4f11d417
DTITLE=Various Artist - Lady Sings the Blues Night and Day [CD 1/2
DYEAR=2002
DGENRE=Blues
TTITLE0=Norah Jones - Don't Know Why
TTITLE1=Dinah Washington - Mad About the Boy
TTITLE2=Aretha Franklin - All Night Long
TTITLE3=Peggy Lee - The Man I Love
TTITLE4=Nina Simone - I Wish I Knew How It Would Feel to Be Free
TTITLE5=Sarah Vaughan - Lover Man
TTITLE6=Ella Fitzgerald - It's Only a Paper Moon
TTITLE7=Julie London - Julie London/Go Slow
TTITLE8=Nancy Wilson - The Nearness of You
TTITLE9=Billie Holiday - Georgia on My Mind
TTITLE10=Dinah Washington - Baby Won't You Please Come Home
TTITLE11=Erma Franklyn - Light My Fire
TTITLE12=Dusty Springfield - You Don't Have to Say You Love Me
TTITLE13=P. P. Arnold - First Cut Is the Deepest
TTITLE14=Ann Peebles - I Can't Stand the Rain
TTITLE15=Irma Thomas - Time Is on My Side
TTITLE16=Esther Phillips - How Blue Can You Get
TTITLE17=Ernestine Anderson - What a Difference a Day Makes
TTITLE18=Lou Rawls and Diane Reeves - Lou Rawls and Diane Reeves/At Last
TTITLE19=Julie London - In the Wee Small Hours of the Morning
TTITLE20=Cassandra Wilson - Time After Time
TTITLE21=Eva Cassidy and Chuck Brown - Need Your Love So Bad
TTITLE22=Keely Smith - Night and Day
EXTD=
EXTT0=
EXTT1=
EXTT2=
EXTT3=
EXTT4=
EXTT5=
EXTT6=
EXTT7=
EXTT8=
EXTT9=
EXTT10=
EXTT11=
EXTT12=
EXTT13=
EXTT14=
EXTT15=
EXTT16=
EXTT17=
EXTT18=
EXTT19=
EXTT20=
EXTT21=
EXTT22=
PLAYORDER=
